<svg width="158" height="32" viewBox="0 0 158 32" fill="none" xmlns="http://www.w3.org/2000/svg">
<g clip-path="url(#clip0_4193_19107)">
<path d="M68.7038 9.67038H62.8584V6.33008H78.1767V9.67038H72.3573V25.7716H68.704V9.67038H68.7038Z" fill="#181034"/>
<path d="M77.3677 18.6211C77.3677 14.0543 80.5252 11.0793 83.7872 11.0793C85.9009 11.0793 87.6495 12.1231 88.6411 13.7672L89.0065 11.4186H92.0336V25.7712H89.0065L88.6411 23.4225C87.6495 25.0666 85.9009 26.1366 83.7872 26.1366C80.5252 26.1366 77.3677 23.1355 77.3677 18.6209V18.6211ZM88.4845 18.595C88.4845 16.0897 86.8926 14.3413 84.7788 14.3413C82.613 14.3413 80.9948 16.1159 80.9948 18.595C80.9948 21.0741 82.6128 22.8486 84.7788 22.8486C86.8926 22.8486 88.4845 21.1003 88.4845 18.595V18.595Z" fill="#181034"/>
<path d="M95.7915 11.4188H98.8186L99.1839 13.7675C100.176 12.1234 101.924 11.0796 103.986 11.0796C107.352 11.0796 110.457 14.0022 110.457 18.5952C110.457 23.1883 107.43 26.137 104.064 26.137C102.159 26.137 100.306 25.0932 99.3927 23.5534V31.2517H95.7915V11.4188V11.4188ZM106.83 18.5691C106.83 16.0899 105.212 14.3414 103.072 14.3414C100.958 14.3414 99.3406 16.0899 99.3406 18.595C99.3406 21.1001 100.958 22.8487 103.046 22.8487C105.212 22.8487 106.83 21.0741 106.83 18.5691V18.5691Z" fill="#181034"/>
<path d="M113.484 4.84253H117.086V25.7715H113.484V4.84253Z" fill="#181034"/>
<path d="M120.687 7.0346C120.687 5.91251 121.574 5.02515 122.722 5.02515C123.845 5.02515 124.732 5.91251 124.732 7.0346C124.732 8.15669 123.845 9.01789 122.722 9.01789C121.574 9.01789 120.687 8.15669 120.687 7.0346ZM120.922 11.4187H124.523V25.7713H120.922V11.4187Z" fill="#181034"/>
<path d="M140.963 16.1942V25.7714H137.362V17.2903C137.362 15.3071 136.475 14.3676 134.752 14.3676C133.108 14.3676 131.908 15.5418 131.908 17.1859V25.7714H128.307V11.4188H131.099L131.49 13.4804H131.569C132.404 12.1495 133.917 11.0796 135.901 11.0796C139.032 11.0796 140.963 13.0367 140.963 16.1944L140.963 16.1942Z" fill="#181034"/>
<path d="M157.299 19.639H147.226C147.722 21.9353 149.575 23.214 151.95 23.214C153.541 23.214 155.107 22.6399 156.516 21.6482V24.7274C155.055 25.6408 153.359 26.1366 151.532 26.1366C146.678 26.1366 143.781 23.031 143.781 18.6471C143.781 14.0543 146.991 11.0793 150.906 11.0793C154.481 11.0793 157.403 13.5846 157.403 18.3341C157.403 18.8299 157.351 19.2474 157.299 19.6388L157.299 19.639ZM153.959 17.3686C153.907 15.1506 152.55 13.9762 150.88 13.9762C149.105 13.9762 147.592 15.2808 147.2 17.3686H153.959H153.959Z" fill="#181034"/>
<path d="M43.0693 0L51.2175 8.1482V19.7888L43.0693 11.6404V0Z" fill="#7D6CF6"/>
<path d="M43.0696 11.6406L51.2178 19.789H39.5774V31.4294L31.4292 23.281V11.6406H43.0696Z" fill="#181034"/>
<path d="M8.1482 0V11.6404H19.7888L11.6404 19.7888H0V8.1482L8.1482 0Z" fill="#181034"/>
<path d="M19.789 23.281L11.6406 31.4294V19.789L19.789 11.6406V23.281Z" fill="#7D6CF6"/>
</g>
<defs>
<clipPath id="clip0_4193_19107">
<rect width="157.404" height="31.4292" fill="white"/>
</clipPath>
</defs>
</svg>
