<svg width="141" height="39" viewBox="0 0 141 39" fill="none" xmlns="http://www.w3.org/2000/svg">
<path d="M61.6761 10.0052C63.3274 10.8348 64.6964 12.1343 65.6109 13.7401C66.5616 15.4604 67.0396 17.4017 66.9965 19.3667C67.0421 21.3218 66.5637 23.2534 65.6109 24.9611C64.6893 26.5533 63.3214 27.8406 61.6761 28.6638C59.8443 29.5685 57.8213 30.0184 55.7787 29.9754H48.3379V8.7065H55.7787C57.8203 8.65947 59.8432 9.10494 61.6761 10.0052V10.0052ZM60.8093 24.5067C62.0274 23.2865 62.6364 21.5678 62.6364 19.3506C62.6364 17.1335 62.0274 15.4008 60.8093 14.1526C59.5869 12.9023 57.8584 12.2771 55.6241 12.2771H52.6078V26.3307H55.6241C57.8605 26.3414 59.589 25.7431 60.8093 24.5357V24.5067Z" fill="white"/>
<path d="M70.1838 10.3545C69.9408 10.1268 69.7486 9.85035 69.6197 9.54325C69.4909 9.23616 69.4284 8.90531 69.4362 8.57237C69.4281 8.23893 69.4904 7.90753 69.6192 7.59987C69.7481 7.29221 69.9405 7.01523 70.1838 6.78707C70.4334 6.54936 70.7277 6.36369 71.0497 6.24086C71.3717 6.11804 71.7149 6.06053 72.0593 6.07167C72.4037 6.06107 72.7468 6.11882 73.0687 6.24162C73.3906 6.36442 73.6851 6.5498 73.9349 6.78707C74.1773 7.01577 74.3687 7.29293 74.497 7.60051C74.6252 7.90809 74.6875 8.23922 74.6794 8.57237C74.687 8.90499 74.6246 9.2355 74.4964 9.5425C74.3681 9.84949 74.1769 10.1261 73.9349 10.3545C73.6851 10.5917 73.3906 10.7771 73.0687 10.8999C72.7468 11.0227 72.4037 11.0805 72.0593 11.0699C71.7149 11.081 71.3717 11.0235 71.0497 10.9007C70.7277 10.7778 70.4334 10.5922 70.1838 10.3545V10.3545ZM74.1637 13.084V29.9734H69.8938V13.084H74.1637Z" fill="white"/>
<path d="M88.0042 13.5569C88.9026 14.0078 89.6771 14.6716 90.26 15.4904V13.0832H94.559V30.0951C94.5838 31.5473 94.2588 32.9842 93.6116 34.2844C92.9777 35.5186 91.9919 36.5369 90.779 37.2105C89.3762 37.9667 87.7989 38.3402 86.206 38.2933C83.8063 38.2933 81.8396 37.7337 80.3056 36.6144C79.5629 36.0894 78.9444 35.4078 78.4939 34.6177C78.0434 33.8275 77.7718 32.9481 77.6985 32.0415H81.9361C82.1629 32.8203 82.6812 33.4817 83.3831 33.8881C84.2012 34.3653 85.1369 34.6031 86.0836 34.5745C86.635 34.5965 87.1854 34.5093 87.7031 34.3179C88.2207 34.1266 88.6955 33.8348 89.1 33.4595C89.8734 32.7183 90.26 31.5957 90.26 30.0919V27.4687C89.6679 28.2977 88.8899 28.9765 87.9882 29.4506C86.9703 29.9918 85.8312 30.2646 84.6786 30.2433C83.3001 30.256 81.9466 29.876 80.7761 29.1477C79.5793 28.392 78.6145 27.3203 77.9885 26.0508C77.2845 24.6253 76.9342 23.0513 76.9669 21.4619C76.9357 19.888 77.2862 18.3301 77.9885 16.9213C78.6094 15.6651 79.5709 14.6088 80.7632 13.8727C81.9429 13.1579 83.2994 12.7884 84.6786 12.806C85.8316 12.7835 86.9728 13.0412 88.0042 13.5569V13.5569ZM89.6511 18.8645C89.2725 18.1525 88.7019 17.5608 88.0042 17.1565C87.3279 16.7639 86.5595 16.5582 85.7775 16.5603C85.0074 16.5544 84.2496 16.7546 83.583 17.1404C82.8949 17.5446 82.3309 18.1298 81.9523 18.8322C81.5179 19.6415 81.3024 20.5502 81.3272 21.4683C81.3046 22.3965 81.5198 23.315 81.9523 24.1366C82.3305 24.8606 82.9 25.467 83.599 25.8897C84.2556 26.2886 85.0093 26.4993 85.7775 26.4987C86.5593 26.502 87.3277 26.2974 88.0042 25.9058C88.7019 25.5015 89.2725 24.9098 89.6511 24.1978C90.0766 23.3742 90.286 22.4562 90.26 21.5295C90.2855 20.604 90.076 19.6871 89.6511 18.8645V18.8645Z" fill="white"/>
<path d="M98.7209 10.3543C98.4779 10.1267 98.2857 9.85023 98.1568 9.54313C98.028 9.23603 97.9655 8.90519 97.9734 8.57225C97.9652 8.2388 98.0277 7.90741 98.1565 7.59975C98.2854 7.29209 98.4776 7.01511 98.7209 6.78695C98.9708 6.54968 99.2652 6.36429 99.5872 6.2415C99.9091 6.1187 100.252 6.06094 100.597 6.07155C100.941 6.06094 101.284 6.1187 101.606 6.2415C101.928 6.36429 102.222 6.54968 102.472 6.78695C102.715 7.01549 102.907 7.29253 103.036 7.6001C103.164 7.90767 103.227 8.23889 103.22 8.57225C103.227 8.90508 103.164 9.23567 103.035 9.54265C102.906 9.84963 102.714 10.1262 102.472 10.3543C102.222 10.5916 101.928 10.777 101.606 10.8998C101.284 11.0226 100.941 11.0803 100.597 11.0697C100.252 11.0803 99.9091 11.0226 99.5872 10.8998C99.2652 10.777 98.9708 10.5916 98.7209 10.3543V10.3543ZM102.701 13.0838V29.9733H98.4309V13.0838H102.701Z" fill="white"/>
<path d="M106.569 16.9414C107.247 15.6648 108.273 14.6066 109.527 13.8896C110.85 13.1547 112.343 12.7823 113.855 12.81C115.95 12.81 117.683 13.3332 119.053 14.3794C120.46 15.4802 121.437 17.0388 121.815 18.7847H117.21C116.994 18.0925 116.562 17.4881 115.976 17.0606C115.344 16.6286 114.591 16.4096 113.826 16.4354C113.273 16.4132 112.721 16.5218 112.218 16.7525C111.714 16.9832 111.271 17.3294 110.926 17.7631C110.215 18.6461 109.859 19.9008 109.859 21.5271C109.859 23.1534 110.215 24.3984 110.926 25.262C111.271 25.6963 111.713 26.043 112.217 26.2737C112.721 26.5045 113.273 26.6127 113.826 26.5897C115.545 26.5897 116.673 25.8174 117.21 24.2727H121.815C121.41 25.998 120.432 27.535 119.04 28.6328C117.659 29.707 115.931 30.2441 113.855 30.2441C112.342 30.2724 110.849 29.8988 109.527 29.1613C108.273 28.4455 107.247 27.3884 106.569 26.1128C105.833 24.6975 105.466 23.119 105.503 21.5239C105.466 19.9309 105.833 18.3545 106.569 16.9414V16.9414Z" fill="white"/>
<path d="M140.23 22.8101H127.881C127.925 23.8956 128.387 24.9222 129.17 25.6749C129.926 26.3664 130.92 26.7383 131.945 26.7126C133.53 26.7126 134.659 26.0316 135.332 24.6695H139.933C139.46 26.2753 138.476 27.6828 137.13 28.6784C135.748 29.7268 134.051 30.2499 132.038 30.2478C130.51 30.2723 129.002 29.8992 127.662 29.165C126.382 28.4556 125.335 27.3913 124.646 26.1003C123.902 24.6928 123.529 23.119 123.563 21.5275C123.528 19.9284 123.894 18.3461 124.63 16.9257C125.307 15.6402 126.345 14.5807 127.617 13.8771C128.974 13.1465 130.497 12.779 132.038 12.8105C133.54 12.7854 135.023 13.1413 136.35 13.8449C137.602 14.5163 138.63 15.539 139.308 16.7871C140.029 18.1315 140.392 19.6384 140.362 21.1633C140.363 21.7149 140.318 22.2656 140.23 22.8101V22.8101ZM135.931 19.942C135.939 19.4422 135.836 18.9469 135.631 18.4912C135.425 18.0356 135.122 17.6309 134.742 17.3059C133.95 16.6391 132.941 16.287 131.906 16.3166C130.926 16.289 129.973 16.6346 129.238 17.2834C128.485 17.9797 128.014 18.9279 127.913 19.9484L135.931 19.942Z" fill="white"/>
<path d="M14.5879 29.9457L29.9498 14.5838C30.3207 14.2123 30.5924 13.7538 30.7402 13.2502C30.888 12.7465 30.9072 12.2139 30.7959 11.701C30.6847 11.188 30.4466 10.7112 30.1034 10.314C29.7602 9.91687 29.3231 9.61212 28.8317 9.42766L4.24989 0.207908C3.68532 -0.00268512 3.07207 -0.0465002 2.4833 0.0816922C1.89453 0.209885 1.35504 0.504672 0.929133 0.93092C0.503225 1.35717 0.208887 1.8969 0.081164 2.48577C-0.046559 3.07465 -0.00226677 3.68782 0.208776 4.25222L9.42534 28.8339C9.61075 29.3255 9.91652 29.7627 10.3145 30.1055C10.7126 30.4484 11.1901 30.686 11.7036 30.7966C12.2172 30.9072 12.7503 30.8873 13.2542 30.7386C13.758 30.59 14.2166 30.3174 14.5879 29.9457V29.9457Z" fill="url(#paint0_linear_4239_22060)"/>
<path d="M5.49414 21.8397L5.49414 35.2262C5.49414 37.127 7.03505 38.668 8.93585 38.668H22.3224C24.2232 38.668 25.7641 37.127 25.7641 35.2262V21.8397C25.7641 19.9389 24.2232 18.3979 22.3224 18.3979H8.93585C7.03505 18.3979 5.49414 19.9389 5.49414 21.8397Z" fill="url(#paint1_linear_4239_22060)"/>
<path d="M25.7638 31.3049C32.8918 31.3049 38.6702 25.5266 38.6702 18.3986C38.6702 11.2706 32.8918 5.49219 25.7638 5.49219C18.6358 5.49219 12.8574 11.2706 12.8574 18.3986C12.8574 25.5266 18.6358 31.3049 25.7638 31.3049Z" fill="url(#paint2_linear_4239_22060)"/>
<path d="M5.49414 21.8397L5.49414 35.2262C5.49414 37.127 7.03505 38.668 8.93585 38.668H22.3224C24.2232 38.668 25.7641 37.127 25.7641 35.2262V21.8397C25.7641 19.9389 24.2232 18.3979 22.3224 18.3979H8.93585C7.03505 18.3979 5.49414 19.9389 5.49414 21.8397Z" fill="url(#paint3_linear_4239_22060)" style="mix-blend-mode:multiply"/>
<defs>
<linearGradient id="paint0_linear_4239_22060" x1="9.05623" y1="25.5895" x2="28.946" y2="5.69975" gradientUnits="userSpaceOnUse">
<stop stop-color="#FCC649"/>
<stop offset="0.5" stop-color="#FDBF29"/>
<stop offset="1" stop-color="#FC9F12"/>
</linearGradient>
<linearGradient id="paint1_linear_4239_22060" x1="13.8866" y1="41.8172" x2="32.2138" y2="23.4902" gradientUnits="userSpaceOnUse">
<stop stop-color="#31FFFF"/>
<stop offset="1" stop-color="#2EB5FF"/>
</linearGradient>
<linearGradient id="paint2_linear_4239_22060" x1="24.0579" y1="31.6429" x2="42.3873" y2="13.3136" gradientUnits="userSpaceOnUse">
<stop stop-color="#CD9DFF"/>
<stop offset="0.5" stop-color="#9A3CFF"/>
<stop offset="1" stop-color="#711DFF"/>
</linearGradient>
<linearGradient id="paint3_linear_4239_22060" x1="13.8866" y1="41.8172" x2="32.2138" y2="23.4902" gradientUnits="userSpaceOnUse">
<stop stop-color="#31FFFF"/>
<stop offset="1" stop-color="#2EB5FF"/>
</linearGradient>
</defs>
</svg>
